# xmcd
#
# Track frame offsets:
# 150
# 20250
# 38929
# 59129
# 91713
# 115887
# 140714
# 167204
# 187944
# 205176
# 222633
# 240411
# 255310
# 280387
# 293440
#
# Disc length: 4203 seconds
#
#
# Revision: 1
# Processed by: cddbd v1.5.2PL0 Copyright (c) Steve Scherf et al.
# Submitted via: FreeRIP 2.96 
#
DISCID=db10690f
DTITLE=Ambient Grooves From Around The World (Chill Out In Barcelona)
DYEAR=2003
DGENRE=Chill Lounge
TTITLE0=Levantis and Friends - Gypsy Air
TTITLE1=Vangarde and XXL - Pure Magic
TTITLE2=Vangarde - Syrian Swing
TTITLE3=Neonsound - Light Years Away
TTITLE4=Vangarde - Future Vision
TTITLE5=Essence - Inner Potion
TTITLE6=Vangarde - Square (Original Mix)
TTITLE7=Vangarde and XXL - Like A Picaroon
TTITLE8=Vangarde - Full Moon
TTITLE9=Le Vab - Pure and Blind
TTITLE10=Vangarde - Lounge Suite
TTITLE11=Billy Thunder - Drizzle
TTITLE12=Vangarde - Go' Round
TTITLE13=Vangarde and XXL - Passage Through Life
TTITLE14=Levantis and Friends - Andalucia
EXTD=
EXTT0=
EXTT1=
EXTT2=
EXTT3=
EXTT4=
EXTT5=
EXTT6=
EXTT7=
EXTT8=
EXTT9=
EXTT10=
EXTT11=
EXTT12=
EXTT13=
EXTT14=
PLAYORDER=
